Simulation
nRows=15
nColumns=15
endheader
time  TH_x TH_y TH_z SC_y  SC_z  SC_x  AC_y  AC_z  AC_x  GH_y  GH_z  GH_yy  EL_x  PS_y
0.0  0.000000  0.000000  0.000000  -40.72756060979867  6.591151762039726  5.708391943303158  44.5378943903055  3.514919671671671  -0.8521755711800657  144.02952308136554  2.120921229498813  -119.771209348496  22.707547132900118  120.000000
0.028900000000000006  0.000000  0.000000  0.000000  -40.56587211073413  6.771420843647628  5.505284195146947  44.28519971601866  3.8060968730045235  -0.6914652973799451  151.0758234732077  1.2630992385021114  -126.42898452124064  22.702225594509738  120.000000
0.05780000000000001  0.000000  0.000000  0.000000  -40.40865945541692  6.869469492108025  5.288644618410149  44.05745675977079  4.001884956798689  -0.5563455218366081  171.95553589938697  0.5634776777933186  -146.94299911194653  22.675099688384073  120.000000
0.08670000000000001  0.000000  0.000000  0.000000  -40.304580269023276  6.922209699367662  5.069005237137945  43.85678848439583  4.100729386523268  -0.4457597310179218  -107.3454437098344  0.31198843824476163  132.66932182146434  22.599155816562504  120.000000
0.11560000000000002  0.000000  0.000000  0.000000  -40.28530443753065  6.953709324189691  4.858192957511628  43.69507733545701  4.1120905321989625  -0.36048346146054194  -59.05251285373953  0.5787714145209335  84.6071844960898  22.46526465996066  120.000000
0.14450000000000002  0.000000  0.000000  0.000000  -40.37161151765061  6.974785733028483  4.67168666680603  43.58551747695966  4.051499564579725  -0.29442562029261715  -39.319864367641095  0.8341252413335369  65.0019025559884  22.276760461694177  120.000000
0.17340000000000003  0.000000  0.000000  0.000000  -40.568557949487506  6.986267046181206  4.524568773516628  43.54623731945997  3.9343470287116813  -0.2358398611867399  -23.47154564007021  1.0889450693799119  49.162465018408454  22.052786980017487  120.000000
0.20230000000000004  0.000000  0.000000  0.000000  -40.86729944601  6.984544699268781  4.429230434392412  43.598638600151254  3.7717623377666496  -0.16620441525870325  -10.883612387379735  1.4406482861294632  36.45811872861537  21.824114686278914  120.000000
0.23120000000000004  0.000000  0.000000  0.000000  -41.24693013874696  6.964268309686363  4.3923779780418055  43.76439579934223  3.5723381247191353  -0.06368885530690434  -3.309830509794315  1.9510202089527457  28.64179748708629  21.627338668684047  120.000000
0.26010000000000005  0.000000  0.000000  0.000000  -41.67984524532113  6.922736564635722  4.413185456361759  44.05897726844456  3.3441638095482222  0.0923838052710991  -0.5271272204319365  2.6446660584556305  25.49452865977731  21.50116390209943  120.000000
0.28900000000000003  0.000000  0.000000  0.000000  -42.133649650475704  6.862156814934143  4.485747421760907  44.48599254669862  3.097276142078153  0.3176342753029242  -1.092430836188721  3.5355772885251127  25.58088596914371  21.478353235752884  120.000000
0.31790000000000007  0.000000  0.000000  0.000000  -42.57735700553857  6.790772627858094  4.599651552174869  45.02989567787935  2.843884604418519  0.6187390805115627  -3.500915265235427  4.638060615506734  27.406253477665064  21.578070779919035  120.000000
0.34680000000000005  0.000000  0.000000  0.000000  -42.98652459105258  6.723134218128131  4.742111266030608  45.659202755242404  2.600678951999029  0.9925054186183314  -6.619103954809732  5.95473382430347  29.848524415543967  21.799003621793798  120.000000
0.3757000000000001  0.000000  0.000000  0.000000  -43.349879203379565  6.678972677479142  4.901016803004113  46.32917350919665  2.385694165774167  1.4241785220735972  -9.701360582577736  7.467594615876877  32.175504122623536  22.11721074389725  120.000000
0.40460000000000007  0.000000  0.000000  0.000000  -43.6700477281067  6.676639579541783  5.070987461218386  46.990855531575626  2.217330015478783  1.8885565651552132  -12.328970834774246  9.134884199206246  33.9838144200932  22.489263974151946  120.000000
